<svg width="253" height="55" viewBox="0 0 253 55" fill="none" xmlns="http://www.w3.org/2000/svg">
<path d="M39.7235 12.2549V19.3454C39.7235 24.1057 37.7617 28.4293 34.6035 31.563C31.7514 34.393 27.9221 36.2555 23.6758 36.5873V38.4873C23.6758 42.2731 25.2372 45.713 27.7525 48.2089C30.2678 50.7048 33.7368 52.2541 37.5497 52.2541C41.3649 52.2541 44.8316 50.7048 47.3469 48.2089C49.8622 45.7131 51.4235 42.2708 51.4235 38.4873V31.6145C50.253 31.3528 49.2074 30.7639 48.3878 29.9483C47.255 28.8265 46.5555 27.2748 46.5555 25.5619C46.5555 24.8024 47.1749 24.1877 47.9403 24.1877C48.7058 24.1877 49.3251 24.8023 49.3251 25.5619C49.3251 26.5177 49.7161 27.38 50.3449 28.0039C50.9737 28.6279 51.8451 29.0158 52.8059 29.0158C53.7692 29.0158 54.6382 28.6279 55.2693 28.0039C55.8982 27.38 56.2891 26.5153 56.2891 25.5619C56.2891 24.8024 56.9084 24.1877 57.6739 24.1877C58.4393 24.1877 59.0587 24.8023 59.0587 25.5619C59.0587 27.2748 58.3592 28.8265 57.2288 29.9483C56.4092 30.7615 55.3635 31.3505 54.193 31.6145V38.4873C54.193 43.0303 52.3207 47.1596 49.3062 50.1508C46.2917 53.1421 42.1304 55 37.552 55C32.9735 55 28.8123 53.1421 25.7978 50.1508C22.7832 47.1596 20.9109 43.0304 20.9109 38.4873V36.5873C16.6647 36.2508 12.835 34.3906 9.9833 31.563C6.82511 28.4291 4.86567 24.1033 4.86567 19.3454V12.2549C3.6952 11.9932 2.64717 11.4042 1.82993 10.5886C0.699489 9.4669 0 7.91515 0 6.20223C0 4.4893 0.699489 2.93755 1.82993 1.81582C2.96273 0.694095 4.52419 0 6.25042 0C7.97666 0 9.54047 0.694095 10.6709 1.81582C11.8037 2.93988 12.5032 4.4893 12.5032 6.20223C12.5032 7.91515 11.8037 9.4669 10.6709 10.5886C9.85603 11.3972 8.81982 11.9838 7.6564 12.2478C7.86364 15.9261 9.46511 19.2516 11.9403 21.7074C14.5993 24.3459 18.2636 25.9817 22.2958 25.9817C26.328 25.9817 29.9949 24.3458 32.6513 21.7074C35.1265 19.2513 36.7303 15.9235 36.9352 12.2478C35.7741 11.9814 34.7356 11.3972 33.9207 10.5886C32.7902 9.4669 32.0908 7.91515 32.0908 6.20223C32.0908 4.4893 32.7902 2.93755 33.9207 1.81582C35.0535 0.694095 36.6149 0 38.3412 0C40.0675 0 41.6312 0.694095 42.7617 1.81582C43.8945 2.93988 44.594 4.4893 44.594 6.20223C44.594 7.91515 43.8945 9.4669 42.7617 10.5886C41.9421 11.4019 40.8964 11.9908 39.7259 12.2549H39.7235ZM7.70806 20.8877C8.0731 24.2739 9.62277 27.3261 11.9331 29.6186C14.592 32.2571 18.2563 33.8929 22.2886 33.8929C26.3208 33.8929 29.9876 32.2547 32.644 29.6186C34.9567 27.3238 36.5064 24.2741 36.8691 20.8877C36.2096 21.8856 35.4489 22.811 34.6011 23.6523C31.4429 26.7861 27.0835 28.7328 22.2886 28.7328C17.4937 28.7328 13.1341 26.7861 9.97613 23.6523C9.13068 22.811 8.36746 21.8856 7.70806 20.8877Z" fill="#0D4C92"/>
<path d="M71.4131 43.9472V41.3126L68.8469 36.8482H70.1022L72.013 40.2984L73.9237 36.8482H75.179L72.6129 41.3126V43.9472H71.4131ZM78.8783 44.0574C77.9303 44.0574 77.236 43.8222 76.7954 43.3519C76.3547 42.8816 76.1344 42.2091 76.1344 41.3346C76.1344 40.4601 76.3566 39.7877 76.8009 39.3174C77.2453 38.847 77.9377 38.6119 78.8783 38.6119C79.8263 38.6119 80.5224 38.847 80.9668 39.3174C81.4111 39.7877 81.6333 40.4601 81.6333 41.3346C81.6333 42.2091 81.413 42.8816 80.9723 43.3519C80.5317 43.8222 79.8337 44.0574 78.8783 44.0574ZM78.8783 43.0432C79.4338 43.0432 79.8281 42.9091 80.0614 42.6409C80.2947 42.3727 80.4113 41.9372 80.4113 41.3346C80.4113 40.732 80.2947 40.2984 80.0614 40.0339C79.8281 39.7693 79.4338 39.637 78.8783 39.637C78.3303 39.637 77.9396 39.7693 77.7063 40.0339C77.473 40.2984 77.3564 40.732 77.3564 41.3346C77.3564 41.9372 77.473 42.3727 77.7063 42.6409C77.9396 42.9091 78.3303 43.0432 78.8783 43.0432ZM84.7105 44.0574C84.081 44.0574 83.5978 43.8847 83.2608 43.5393C82.9238 43.1939 82.7553 42.6868 82.7553 42.0181V38.7221H83.9662V42.0181C83.9662 42.4076 84.0625 42.6942 84.255 42.8779C84.4476 43.0616 84.7438 43.1535 85.1438 43.1535C85.44 43.1535 85.714 43.0984 85.9658 42.9881C86.2176 42.8779 86.4361 42.7309 86.6212 42.5472V38.7221H87.821V43.9472H86.7212L86.6657 43.407C86.4287 43.5907 86.1473 43.7451 85.8214 43.87C85.4955 43.9949 85.1252 44.0574 84.7105 44.0574ZM89.2318 43.9472V38.7221H90.3427L90.4094 39.3284C90.6612 39.1667 90.9611 39.0197 91.3092 38.8875C91.6573 38.7552 92.0017 38.6633 92.3424 38.6119V39.5268C92.135 39.5636 91.911 39.6168 91.6703 39.6867C91.4296 39.7565 91.2018 39.8336 90.9871 39.9181C90.7723 40.0027 90.5908 40.089 90.4427 40.1772V43.9472H89.2318ZM99.1299 44.0574C97.9524 44.0574 97.0618 43.7377 96.4582 43.0984C95.8546 42.459 95.5528 41.5955 95.5528 40.5079C95.5528 39.7289 95.6806 39.0583 95.9361 38.4961C96.1916 37.9339 96.5823 37.5004 97.1081 37.1954C97.6339 36.8904 98.3042 36.7379 99.1188 36.7379C99.5336 36.7379 99.9131 36.7692 100.257 36.8316C100.602 36.8941 100.922 36.9768 101.218 37.0796V38.1269C100.922 38.0093 100.606 37.9193 100.269 37.8568C99.9316 37.7943 99.578 37.7631 99.2077 37.7631C98.319 37.7631 97.6913 37.9983 97.3247 38.4686C96.9581 38.9389 96.7748 39.6187 96.7748 40.5079C96.7748 41.3383 96.9748 41.9685 97.3747 42.3984C97.7746 42.8283 98.393 43.0432 99.2299 43.0432C99.5706 43.0432 99.9131 43.0157 100.257 42.9606C100.602 42.9054 100.926 42.8191 101.23 42.7015V43.7598C100.933 43.8553 100.613 43.9288 100.269 43.9802C99.9242 44.0317 99.5447 44.0574 99.1299 44.0574ZM104.929 44.0574C103.981 44.0574 103.287 43.8222 102.846 43.3519C102.405 42.8816 102.185 42.2091 102.185 41.3346C102.185 40.4601 102.407 39.7877 102.851 39.3174C103.296 38.847 103.988 38.6119 104.929 38.6119C105.877 38.6119 106.573 38.847 107.017 39.3174C107.462 39.7877 107.684 40.4601 107.684 41.3346C107.684 42.2091 107.463 42.8816 107.023 43.3519C106.582 43.8222 105.884 44.0574 104.929 44.0574ZM104.929 43.0432C105.484 43.0432 105.879 42.9091 106.112 42.6409C106.345 42.3727 106.462 41.9372 106.462 41.3346C106.462 40.732 106.345 40.2984 106.112 40.0339C105.879 39.7693 105.484 39.637 104.929 39.637C104.381 39.637 103.99 39.7693 103.757 40.0339C103.524 40.2984 103.407 40.732 103.407 41.3346C103.407 41.9372 103.524 42.3727 103.757 42.6409C103.99 42.9091 104.381 43.0432 104.929 43.0432ZM108.861 43.9472V38.7221H109.972L110.028 39.2733C110.287 39.0675 110.572 38.9058 110.883 38.7883C111.194 38.6707 111.528 38.6119 111.883 38.6119C112.261 38.6119 112.555 38.6725 112.766 38.7938C112.977 38.915 113.138 39.0822 113.249 39.2953C113.494 39.0969 113.775 38.9334 114.094 38.8048C114.412 38.6762 114.794 38.6119 115.238 38.6119C115.845 38.6119 116.293 38.7662 116.582 39.0749C116.871 39.3835 117.015 39.8575 117.015 40.4969V43.9472H115.827V40.6181C115.827 40.2139 115.742 39.931 115.571 39.7693C115.401 39.6077 115.123 39.5268 114.738 39.5268C114.486 39.5268 114.247 39.5709 114.021 39.6591C113.796 39.7473 113.601 39.8796 113.438 40.0559C113.46 40.1368 113.475 40.2213 113.483 40.3095C113.49 40.3977 113.494 40.4932 113.494 40.5961V43.9472H112.372V40.6291C112.372 40.247 112.305 39.9677 112.172 39.7914C112.039 39.615 111.787 39.5268 111.416 39.5268C111.157 39.5268 110.911 39.5874 110.678 39.7087C110.444 39.83 110.235 39.9751 110.05 40.1441V43.9472H108.861ZM118.371 46.3282V38.7221H119.415L119.482 39.2402C119.719 39.0271 119.978 38.8691 120.259 38.7662C120.541 38.6633 120.874 38.6119 121.259 38.6119C122.014 38.6119 122.603 38.8158 123.025 39.2237C123.447 39.6315 123.658 40.3058 123.658 41.2464C123.658 42.1871 123.44 42.8908 123.003 43.3574C122.566 43.8241 121.97 44.0574 121.215 44.0574C120.578 44.0574 120.033 43.9104 119.582 43.6165V46.3282H118.371ZM120.903 43.1535C121.925 43.1535 122.437 42.5141 122.437 41.2354C122.437 40.6181 122.322 40.179 122.092 39.9181C121.863 39.6573 121.477 39.5268 120.937 39.5268C120.396 39.5268 119.944 39.7105 119.582 40.078V42.6905C119.752 42.8301 119.943 42.9422 120.154 43.0267C120.365 43.1112 120.615 43.1535 120.903 43.1535ZM126.48 44.0574C126.147 44.0574 125.838 43.9986 125.553 43.881C125.267 43.7634 125.04 43.5852 124.869 43.3464C124.699 43.1075 124.614 42.8118 124.614 42.459C124.614 41.9593 124.786 41.5569 125.13 41.252C125.475 40.947 126.006 40.7945 126.725 40.7945H128.413V40.563C128.413 40.3131 128.374 40.1147 128.296 39.9677C128.219 39.8208 128.078 39.7142 127.874 39.6481C127.671 39.5819 127.373 39.5489 126.98 39.5489C126.358 39.5489 125.777 39.6407 125.236 39.8244V38.9316C125.473 38.836 125.762 38.7589 126.102 38.7001C126.443 38.6413 126.81 38.6119 127.202 38.6119C127.972 38.6119 128.559 38.7662 128.963 39.0749C129.367 39.3835 129.568 39.8869 129.568 40.585V43.9472H128.535L128.458 43.418C128.243 43.6238 127.978 43.7818 127.663 43.892C127.349 44.0023 126.954 44.0574 126.48 44.0574ZM126.802 43.1976C127.165 43.1976 127.482 43.1369 127.752 43.0157C128.022 42.8944 128.243 42.7309 128.413 42.5251V41.6102H126.747C126.391 41.6102 126.134 41.6782 125.975 41.8141C125.815 41.9501 125.736 42.1577 125.736 42.437C125.736 42.7089 125.828 42.9036 126.014 43.0212C126.199 43.1388 126.462 43.1976 126.802 43.1976ZM132.668 44.0574C132.305 44.0574 131.959 44.0317 131.629 43.9802C131.3 43.9288 131.027 43.8663 130.813 43.7928V42.7787C131.064 42.8742 131.342 42.9477 131.646 42.9991C131.949 43.0506 132.238 43.0763 132.512 43.0763C132.927 43.0763 133.223 43.0396 133.401 42.9661C133.579 42.8926 133.668 42.7493 133.668 42.5362C133.668 42.3818 133.614 42.2606 133.507 42.1724C133.399 42.0842 133.24 42.0034 133.029 41.9299C132.818 41.8564 132.549 41.7682 132.223 41.6653C131.912 41.5624 131.642 41.4504 131.413 41.3291C131.183 41.2079 131.005 41.0517 130.879 40.8606C130.753 40.6696 130.69 40.4197 130.69 40.111C130.69 39.6334 130.864 39.2641 131.213 39.0032C131.561 38.7423 132.12 38.6119 132.89 38.6119C133.194 38.6119 133.483 38.6339 133.757 38.678C134.031 38.7221 134.264 38.7772 134.456 38.8434V39.8465C134.249 39.7657 134.021 39.7032 133.773 39.6591C133.525 39.615 133.294 39.593 133.079 39.593C132.694 39.593 132.403 39.626 132.207 39.6922C132.011 39.7583 131.912 39.8906 131.912 40.089C131.912 40.2948 132.014 40.4399 132.218 40.5244C132.422 40.6089 132.749 40.7247 133.201 40.8717C133.616 40.9966 133.945 41.1289 134.19 41.2685C134.434 41.4081 134.61 41.5753 134.717 41.7701C134.825 41.9648 134.879 42.2165 134.879 42.5251C134.879 43.0396 134.69 43.4235 134.312 43.6771C133.934 43.9306 133.386 44.0574 132.668 44.0574ZM137.822 44.0574C137.46 44.0574 137.113 44.0317 136.784 43.9802C136.454 43.9288 136.182 43.8663 135.967 43.7928V42.7787C136.219 42.8742 136.497 42.9477 136.8 42.9991C137.104 43.0506 137.393 43.0763 137.667 43.0763C138.082 43.0763 138.378 43.0396 138.556 42.9661C138.733 42.8926 138.822 42.7493 138.822 42.5362C138.822 42.3818 138.769 42.2606 138.661 42.1724C138.554 42.0842 138.395 42.0034 138.183 41.9299C137.972 41.8564 137.704 41.7682 137.378 41.6653C137.067 41.5624 136.797 41.4504 136.567 41.3291C136.338 41.2079 136.16 41.0517 136.034 40.8606C135.908 40.6696 135.845 40.4197 135.845 40.111C135.845 39.6334 136.019 39.2641 136.367 39.0032C136.715 38.7423 137.274 38.6119 138.045 38.6119C138.348 38.6119 138.637 38.6339 138.911 38.678C139.185 38.7221 139.418 38.7772 139.611 38.8434V39.8465C139.404 39.7657 139.176 39.7032 138.928 39.6591C138.68 39.615 138.448 39.593 138.233 39.593C137.848 39.593 137.558 39.626 137.361 39.6922C137.165 39.7583 137.067 39.8906 137.067 40.089C137.067 40.2948 137.169 40.4399 137.372 40.5244C137.576 40.6089 137.904 40.7247 138.356 40.8717C138.77 40.9966 139.1 41.1289 139.344 41.2685C139.589 41.4081 139.765 41.5753 139.872 41.7701C139.979 41.9648 140.033 42.2165 140.033 42.5251C140.033 43.0396 139.844 43.4235 139.467 43.6771C139.089 43.9306 138.541 44.0574 137.822 44.0574ZM145.788 44.0574C145.225 44.0574 144.804 43.9086 144.527 43.6109C144.249 43.3133 144.11 42.9073 144.11 42.3929V39.6591H143.332V38.7221H144.11V37.5206L145.31 37.1568V38.7221H146.71L146.632 39.6591H145.31V42.3267C145.31 42.628 145.38 42.8393 145.521 42.9606C145.662 43.0818 145.891 43.1425 146.21 43.1425C146.41 43.1425 146.621 43.1057 146.843 43.0322V43.881C146.554 43.9986 146.202 44.0574 145.788 44.0574ZM150.287 44.0574C149.339 44.0574 148.644 43.8222 148.204 43.3519C147.763 42.8816 147.543 42.2091 147.543 41.3346C147.543 40.4601 147.765 39.7877 148.209 39.3174C148.654 38.847 149.346 38.6119 150.287 38.6119C151.235 38.6119 151.931 38.847 152.375 39.3174C152.819 39.7877 153.042 40.4601 153.042 41.3346C153.042 42.2091 152.821 42.8816 152.381 43.3519C151.94 43.8222 151.242 44.0574 150.287 44.0574ZM150.287 43.0432C150.842 43.0432 151.236 42.9091 151.47 42.6409C151.703 42.3727 151.82 41.9372 151.82 41.3346C151.82 40.732 151.703 40.2984 151.47 40.0339C151.236 39.7693 150.842 39.637 150.287 39.637C149.739 39.637 149.348 39.7693 149.115 40.0339C148.881 40.2984 148.765 40.732 148.765 41.3346C148.765 41.9372 148.881 42.3727 149.115 42.6409C149.348 42.9091 149.739 43.0432 150.287 43.0432ZM158.418 44.0574C158.085 44.0574 157.776 43.9986 157.491 43.881C157.206 43.7634 156.978 43.5852 156.808 43.3464C156.637 43.1075 156.552 42.8118 156.552 42.459C156.552 41.9593 156.724 41.5569 157.069 41.252C157.413 40.947 157.944 40.7945 158.663 40.7945H160.351V40.563C160.351 40.3131 160.312 40.1147 160.235 39.9677C160.157 39.8208 160.016 39.7142 159.813 39.6481C159.609 39.5819 159.311 39.5489 158.918 39.5489C158.296 39.5489 157.715 39.6407 157.174 39.8244V38.9316C157.411 38.836 157.7 38.7589 158.041 38.7001C158.381 38.6413 158.748 38.6119 159.14 38.6119C159.911 38.6119 160.498 38.7662 160.901 39.0749C161.305 39.3835 161.507 39.8869 161.507 40.585V43.9472H160.474L160.396 43.418C160.181 43.6238 159.916 43.7818 159.602 43.892C159.287 44.0023 158.892 44.0574 158.418 44.0574ZM158.741 43.1976C159.103 43.1976 159.42 43.1369 159.69 43.0157C159.961 42.8944 160.181 42.7309 160.351 42.5251V41.6102H158.685C158.33 41.6102 158.072 41.6782 157.913 41.8141C157.754 41.9501 157.674 42.1577 157.674 42.437C157.674 42.7089 157.767 42.9036 157.952 43.0212C158.137 43.1388 158.4 43.1976 158.741 43.1976ZM165.406 43.9472V36.8482H168.694C169.494 36.8482 170.077 37.0521 170.444 37.4599C170.81 37.8678 170.994 38.4208 170.994 39.119C170.994 39.6187 170.868 40.0449 170.616 40.3977C170.364 40.7504 170.001 40.9966 169.527 41.1362C169.661 41.2317 169.764 41.3346 169.838 41.4449C169.912 41.5551 169.987 41.7021 170.061 41.8858L170.96 43.9472H169.716L168.839 41.963C168.757 41.7719 168.659 41.6359 168.544 41.5551C168.429 41.4743 168.235 41.4338 167.961 41.4338H166.617V43.9472H165.406ZM166.617 40.4638H168.372C168.809 40.4638 169.153 40.3572 169.405 40.1441C169.657 39.931 169.783 39.5893 169.783 39.119C169.783 38.2297 169.35 37.7851 168.483 37.7851H166.617V40.4638ZM174.849 44.0574C173.93 44.0574 173.219 43.8332 172.716 43.385C172.212 42.9367 171.96 42.2496 171.96 41.3236C171.96 40.4858 172.175 39.8244 172.605 39.3394C173.034 38.8544 173.686 38.6119 174.56 38.6119C175.36 38.6119 175.961 38.8195 176.365 39.2347C176.769 39.6499 176.97 40.1845 176.97 40.8386V41.8086H173.116C173.175 42.3157 173.36 42.6648 173.671 42.8558C173.982 43.0469 174.456 43.1425 175.093 43.1425C175.36 43.1425 175.634 43.1167 175.915 43.0653C176.196 43.0138 176.441 42.9477 176.648 42.8669V43.7487C176.411 43.8516 176.139 43.9288 175.832 43.9802C175.524 44.0317 175.197 44.0574 174.849 44.0574ZM173.116 41.026H175.904V40.6622C175.904 40.3021 175.804 40.021 175.604 39.8189C175.404 39.6168 175.067 39.5158 174.593 39.5158C174.03 39.5158 173.643 39.637 173.432 39.8796C173.221 40.1221 173.116 40.5042 173.116 41.026ZM179.314 43.9472L177.926 38.7221H179.137L180.048 42.5251L181.081 39.3615V38.7221H182.003L183.147 42.5251L184.058 38.7221H185.258L183.88 43.9472H182.736L181.614 40.5299L180.47 43.9472H179.314ZM188.079 44.0574C187.746 44.0574 187.437 43.9986 187.152 43.881C186.867 43.7634 186.639 43.5852 186.468 43.3464C186.298 43.1075 186.213 42.8118 186.213 42.459C186.213 41.9593 186.385 41.5569 186.73 41.252C187.074 40.947 187.605 40.7945 188.324 40.7945H190.012V40.563C190.012 40.3131 189.973 40.1147 189.896 39.9677C189.818 39.8208 189.677 39.7142 189.473 39.6481C189.27 39.5819 188.972 39.5489 188.579 39.5489C187.957 39.5489 187.376 39.6407 186.835 39.8244V38.9316C187.072 38.836 187.361 38.7589 187.702 38.7001C188.042 38.6413 188.409 38.6119 188.801 38.6119C189.572 38.6119 190.159 38.7662 190.562 39.0749C190.966 39.3835 191.168 39.8869 191.168 40.585V43.9472H190.134L190.057 43.418C189.842 43.6238 189.577 43.7818 189.262 43.892C188.948 44.0023 188.553 44.0574 188.079 44.0574ZM188.401 43.1976C188.764 43.1976 189.081 43.1369 189.351 43.0157C189.622 42.8944 189.842 42.7309 190.012 42.5251V41.6102H188.346C187.99 41.6102 187.733 41.6782 187.574 41.8141C187.415 41.9501 187.335 42.1577 187.335 42.437C187.335 42.7089 187.428 42.9036 187.613 43.0212C187.798 43.1388 188.061 43.1976 188.401 43.1976ZM192.512 43.9472V38.7221H193.623L193.689 39.3284C193.941 39.1667 194.241 39.0197 194.589 38.8875C194.937 38.7552 195.282 38.6633 195.622 38.6119V39.5268C195.415 39.5636 195.191 39.6168 194.95 39.6867C194.709 39.7565 194.482 39.8336 194.267 39.9181C194.052 40.0027 193.871 40.089 193.723 40.1772V43.9472H192.512ZM198.677 44.0574C198.203 44.0574 197.785 43.9765 197.422 43.8149C197.059 43.6532 196.778 43.385 196.578 43.0102C196.378 42.6354 196.278 42.132 196.278 41.5C196.278 40.8753 196.385 40.348 196.6 39.9181C196.815 39.4882 197.113 39.163 197.494 38.9426C197.876 38.7221 198.307 38.6119 198.788 38.6119C199.107 38.6119 199.39 38.6486 199.638 38.7221C199.886 38.7956 200.125 38.9095 200.355 39.0638V36.5175H201.566V43.9472H200.532L200.455 43.4291C200.218 43.6422 199.958 43.8002 199.677 43.9031C199.396 44.0059 199.062 44.0574 198.677 44.0574ZM198.999 43.1535C199.54 43.1535 199.992 42.9698 200.355 42.6023V39.9898C200.007 39.6811 199.57 39.5268 199.044 39.5268C198.533 39.5268 198.148 39.6958 197.889 40.0339C197.629 40.3719 197.5 40.8643 197.5 41.511C197.5 42.1357 197.62 42.5656 197.861 42.8007C198.101 43.0359 198.481 43.1535 198.999 43.1535ZM203.41 37.6308V36.6387H204.732V37.6308H203.41ZM203.51 43.9472V39.637H202.71L202.821 38.7221H204.721V43.9472H203.51ZM206.131 43.9472V38.7221H207.242L207.298 39.2733C207.535 39.0896 207.818 38.9334 208.148 38.8048C208.477 38.6762 208.842 38.6119 209.242 38.6119C209.923 38.6119 210.419 38.7699 210.73 39.0859C211.042 39.4019 211.197 39.8943 211.197 40.563V43.9472H209.997V40.6181C209.997 40.2139 209.914 39.931 209.747 39.7693C209.581 39.6077 209.268 39.5268 208.809 39.5268C208.535 39.5268 208.266 39.5819 208.003 39.6922C207.74 39.8024 207.52 39.9457 207.342 40.1221V43.9472H206.131ZM214.685 45.8872C214.293 45.8872 213.9 45.8634 213.508 45.8156C213.115 45.7678 212.782 45.6962 212.508 45.6006V44.6747C212.804 44.7702 213.145 44.8437 213.53 44.8952C213.915 44.9466 214.282 44.9723 214.63 44.9723C215.163 44.9723 215.552 44.9429 215.796 44.8841C216.041 44.8253 216.163 44.6931 216.163 44.4873C216.163 44.333 216.104 44.2246 215.985 44.1621C215.867 44.0996 215.641 44.0684 215.307 44.0684H213.885C212.93 44.0684 212.452 43.734 212.452 43.0653C212.452 42.8522 212.515 42.6538 212.641 42.47C212.767 42.2863 212.967 42.1467 213.241 42.0511C212.937 41.9042 212.713 41.7021 212.569 41.4449C212.425 41.1877 212.352 40.879 212.352 40.5189C212.352 39.8502 212.554 39.3651 212.958 39.0638C213.361 38.7625 213.967 38.6119 214.774 38.6119C214.944 38.6119 215.122 38.6247 215.307 38.6505C215.493 38.6762 215.637 38.7001 215.741 38.7221H217.674L217.64 39.5048H216.752C216.892 39.6223 216.996 39.7693 217.063 39.9457C217.129 40.1221 217.163 40.3131 217.163 40.5189C217.163 41.0774 216.992 41.5165 216.652 41.8362C216.311 42.1559 215.796 42.3157 215.107 42.3157C214.989 42.3157 214.88 42.3102 214.78 42.2992C214.68 42.2881 214.57 42.2753 214.452 42.2606C214.23 42.2826 214.03 42.3414 213.852 42.437C213.674 42.5325 213.585 42.6611 213.585 42.8228C213.585 42.933 213.63 43.012 213.719 43.0598C213.808 43.1075 213.956 43.1314 214.163 43.1314H215.641C216.166 43.1314 216.572 43.2435 216.857 43.4676C217.142 43.6918 217.285 44.017 217.285 44.4432C217.285 44.9576 217.061 45.3269 216.613 45.551C216.165 45.7752 215.522 45.8872 214.685 45.8872ZM214.774 41.5551C215.255 41.5551 215.591 41.4743 215.779 41.3126C215.968 41.1509 216.063 40.8753 216.063 40.4858C216.063 40.0963 215.968 39.8134 215.779 39.637C215.591 39.4607 215.255 39.3725 214.774 39.3725C214.322 39.3725 213.993 39.457 213.785 39.626C213.578 39.795 213.474 40.0817 213.474 40.4858C213.474 40.8606 213.572 41.1325 213.769 41.3016C213.965 41.4706 214.3 41.5551 214.774 41.5551ZM224.617 44.0574C223.439 44.0574 222.549 43.7377 221.945 43.0984C221.341 42.459 221.04 41.5955 221.04 40.5079C221.04 39.7289 221.167 39.0583 221.423 38.4961C221.678 37.9339 222.069 37.5004 222.595 37.1954C223.121 36.8904 223.791 36.7379 224.606 36.7379C225.02 36.7379 225.4 36.7692 225.744 36.8316C226.089 36.8941 226.409 36.9768 226.705 37.0796V38.1269C226.409 38.0093 226.092 37.9193 225.755 37.8568C225.418 37.7943 225.065 37.7631 224.694 37.7631C223.806 37.7631 223.178 37.9983 222.811 38.4686C222.445 38.9389 222.262 39.6187 222.262 40.5079C222.262 41.3383 222.462 41.9685 222.861 42.3984C223.261 42.8283 223.88 43.0432 224.717 43.0432C225.057 43.0432 225.4 43.0157 225.744 42.9606C226.089 42.9054 226.413 42.8191 226.716 42.7015V43.7598C226.42 43.8553 226.1 43.9288 225.755 43.9802C225.411 44.0317 225.031 44.0574 224.617 44.0574ZM229.538 44.0574C229.205 44.0574 228.895 43.9986 228.61 43.881C228.325 43.7634 228.097 43.5852 227.927 43.3464C227.757 43.1075 227.672 42.8118 227.672 42.459C227.672 41.9593 227.844 41.5569 228.188 41.252C228.533 40.947 229.064 40.7945 229.782 40.7945H231.471V40.563C231.471 40.3131 231.432 40.1147 231.354 39.9677C231.276 39.8208 231.136 39.7142 230.932 39.6481C230.728 39.5819 230.43 39.5489 230.038 39.5489C229.416 39.5489 228.834 39.6407 228.294 39.8244V38.9316C228.531 38.836 228.82 38.7589 229.16 38.7001C229.501 38.6413 229.867 38.6119 230.26 38.6119C231.03 38.6119 231.617 38.7662 232.021 39.0749C232.424 39.3835 232.626 39.8869 232.626 40.585V43.9472H231.593L231.515 43.418C231.301 43.6238 231.036 43.7818 230.721 43.892C230.406 44.0023 230.012 44.0574 229.538 44.0574ZM229.86 43.1976C230.223 43.1976 230.54 43.1369 230.81 43.0157C231.08 42.8944 231.301 42.7309 231.471 42.5251V41.6102H229.805C229.449 41.6102 229.192 41.6782 229.032 41.8141C228.873 41.9501 228.794 42.1577 228.794 42.437C228.794 42.7089 228.886 42.9036 229.071 43.0212C229.257 43.1388 229.519 43.1976 229.86 43.1976ZM233.97 43.9472V38.7221H235.081L235.148 39.3284C235.4 39.1667 235.7 39.0197 236.048 38.8875C236.396 38.7552 236.74 38.6633 237.081 38.6119V39.5268C236.874 39.5636 236.649 39.6168 236.409 39.6867C236.168 39.7565 235.94 39.8336 235.726 39.9181C235.511 40.0027 235.329 40.089 235.181 40.1772V43.9472H233.97ZM240.625 44.0574C239.706 44.0574 238.995 43.8332 238.492 43.385C237.988 42.9367 237.736 42.2496 237.736 41.3236C237.736 40.4858 237.951 39.8244 238.381 39.3394C238.81 38.8544 239.462 38.6119 240.336 38.6119C241.136 38.6119 241.737 38.8195 242.141 39.2347C242.545 39.6499 242.746 40.1845 242.746 40.8386V41.8086H238.892C238.951 42.3157 239.136 42.6648 239.447 42.8558C239.758 43.0469 240.232 43.1425 240.869 43.1425C241.136 43.1425 241.41 43.1167 241.691 43.0653C241.973 43.0138 242.217 42.9477 242.424 42.8669V43.7487C242.187 43.8516 241.915 43.9288 241.608 43.9802C241.3 44.0317 240.973 44.0574 240.625 44.0574ZM238.892 41.026H241.68V40.6622C241.68 40.3021 241.58 40.021 241.38 39.8189C241.18 39.6168 240.843 39.5158 240.369 39.5158C239.806 39.5158 239.419 39.637 239.208 39.8796C238.997 40.1221 238.892 40.5042 238.892 41.026ZM246.59 44.0574C245.672 44.0574 244.961 43.8332 244.457 43.385C243.954 42.9367 243.702 42.2496 243.702 41.3236C243.702 40.4858 243.917 39.8244 244.346 39.3394C244.776 38.8544 245.427 38.6119 246.301 38.6119C247.101 38.6119 247.703 38.8195 248.107 39.2347C248.51 39.6499 248.712 40.1845 248.712 40.8386V41.8086H244.857C244.916 42.3157 245.102 42.6648 245.413 42.8558C245.724 43.0469 246.198 43.1425 246.835 43.1425C247.101 43.1425 247.375 43.1167 247.657 43.0653C247.938 43.0138 248.182 42.9477 248.39 42.8669V43.7487C248.153 43.8516 247.881 43.9288 247.573 43.9802C247.266 44.0317 246.938 44.0574 246.59 44.0574ZM244.857 41.026H247.646V40.6622C247.646 40.3021 247.546 40.021 247.346 39.8189C247.146 39.6168 246.809 39.5158 246.335 39.5158C245.772 39.5158 245.385 39.637 245.174 39.8796C244.963 40.1221 244.857 40.5042 244.857 41.026ZM249.89 43.9472V38.7221H251L251.067 39.3284C251.319 39.1667 251.619 39.0197 251.967 38.8875C252.315 38.7552 252.659 38.6633 253 38.6119V39.5268C252.793 39.5636 252.569 39.6168 252.328 39.6867C252.087 39.7565 251.859 39.8336 251.645 39.9181C251.43 40.0027 251.249 40.089 251.1 40.1772V43.9472H249.89Z" fill="#777777"/>
<path d="M70.491 29.6741V7.896H77.9407C80.2694 7.896 82.2117 8.38166 83.7676 9.35299C85.3235 10.3243 86.4929 11.633 87.276 13.2792C88.0591 14.9253 88.4507 16.7504 88.4507 18.7544C88.4507 20.9629 88.0231 22.8851 87.1679 24.521C86.3126 26.1569 85.0968 27.4247 83.5203 28.3245C81.9438 29.2242 80.0839 29.6741 77.9407 29.6741H70.491ZM86.2869 18.7544C86.2869 17.0162 85.9623 15.4723 85.3131 14.1227C84.664 12.7731 83.7212 11.7148 82.4847 10.948C81.2483 10.1812 79.7336 9.79775 77.9407 9.79775H72.6548V27.7723H77.9407C79.7542 27.7723 81.2792 27.3736 82.5156 26.5761C83.7521 25.7786 84.6898 24.6999 85.3286 23.34C85.9674 21.9802 86.2869 20.4516 86.2869 18.7544ZM99.0225 29.9808C97.8685 29.9808 96.802 29.761 95.8231 29.3214C94.8443 28.8817 93.9993 28.2785 93.2884 27.5116C92.5774 26.7448 92.0261 25.8655 91.6346 24.8737C91.2431 23.8819 91.0473 22.8339 91.0473 21.7297C91.0473 20.5846 91.2431 19.5161 91.6346 18.5243C92.0261 17.5326 92.5826 16.6532 93.3038 15.8864C94.0251 15.1196 94.8752 14.5163 95.8541 14.0767C96.8329 13.637 97.8994 13.4172 99.0534 13.4172C100.207 13.4172 101.269 13.637 102.237 14.0767C103.206 14.5163 104.051 15.1196 104.772 15.8864C105.493 16.6532 106.05 17.5326 106.441 18.5243C106.833 19.5161 107.029 20.5846 107.029 21.7297C107.029 22.8339 106.833 23.8819 106.441 24.8737C106.05 25.8655 105.499 26.7448 104.788 27.5116C104.077 28.2785 103.232 28.8817 102.253 29.3214C101.274 29.761 100.197 29.9808 99.0225 29.9808ZM93.1802 21.7604C93.1802 22.9464 93.4429 24.0251 93.9684 24.9964C94.4939 25.9677 95.1998 26.7346 96.0859 27.2969C96.972 27.8593 97.9509 28.1404 99.0225 28.1404C100.094 28.1404 101.073 27.8541 101.959 27.2816C102.845 26.709 103.556 25.9268 104.092 24.9351C104.628 23.9433 104.896 22.8646 104.896 21.699C104.896 20.513 104.628 19.4292 104.092 18.4476C103.556 17.4661 102.845 16.689 101.959 16.1165C101.073 15.5439 100.094 15.2576 99.0225 15.2576C97.9509 15.2576 96.9772 15.5541 96.1013 16.1471C95.2255 16.7402 94.5197 17.5223 93.9839 18.4936C93.4481 19.465 93.1802 20.5539 93.1802 21.7604ZM117.539 29.9808C116.364 29.9808 115.287 29.761 114.308 29.3214C113.329 28.8817 112.474 28.2733 111.743 27.4963C111.011 26.7192 110.444 25.8297 110.043 24.8277C109.641 23.8257 109.44 22.7624 109.44 21.6377C109.44 20.1245 109.78 18.7441 110.46 17.4968C111.14 16.2494 112.088 15.2576 113.304 14.5214C114.52 13.7853 115.921 13.4172 117.508 13.4172C119.012 13.4172 120.341 13.7597 121.495 14.4448C122.649 15.1298 123.505 16.0551 124.061 17.2207L122.021 17.8648C121.567 17.0469 120.934 16.4079 120.12 15.9478C119.306 15.4877 118.404 15.2576 117.415 15.2576C116.343 15.2576 115.365 15.5337 114.478 16.0858C113.592 16.6379 112.886 17.3945 112.361 18.3556C111.835 19.3167 111.573 20.4107 111.573 21.6377C111.573 22.8442 111.841 23.9382 112.376 24.9197C112.912 25.9013 113.623 26.6834 114.509 27.2662C115.395 27.849 116.374 28.1404 117.446 28.1404C118.147 28.1404 118.821 28.0177 119.471 27.7723C120.12 27.527 120.686 27.1947 121.171 26.7755C121.655 26.3563 121.98 25.9013 122.144 25.4105L124.216 26.024C123.927 26.7806 123.448 27.4605 122.778 28.0637C122.108 28.667 121.325 29.1373 120.429 29.4747C119.532 29.8121 118.569 29.9808 117.539 29.9808ZM127.956 29.6741V7.896H135.406C137.734 7.896 139.677 8.38166 141.232 9.35299C142.788 10.3243 143.958 11.633 144.741 13.2792C145.524 14.9253 145.916 16.7504 145.916 18.7544C145.916 20.9629 145.488 22.8851 144.633 24.521C143.778 26.1569 142.562 27.4247 140.985 28.3245C139.409 29.2242 137.549 29.6741 135.406 29.6741H127.956ZM143.752 18.7544C143.752 17.0162 143.427 15.4723 142.778 14.1227C142.129 12.7731 141.186 11.7148 139.95 10.948C138.713 10.1812 137.199 9.79775 135.406 9.79775H130.12V27.7723H135.406C137.219 27.7723 138.744 27.3736 139.981 26.5761C141.217 25.7786 142.155 24.6999 142.794 23.34C143.432 21.9802 143.752 20.4516 143.752 18.7544ZM149.625 29.6741V13.6933H151.727V29.6741H149.625ZM149.625 10.3499V7.28253H151.727V10.3499H149.625ZM164.401 15.5337C163 15.5746 161.768 15.9631 160.707 16.6993C159.646 17.4354 158.899 18.4476 158.466 19.7359V29.6741H156.364V13.6933H158.342V17.5274C158.899 16.4027 159.635 15.4928 160.552 14.7975C161.469 14.1022 162.443 13.7137 163.473 13.6319C163.68 13.6115 163.86 13.6012 164.014 13.6012C164.169 13.6012 164.298 13.6115 164.401 13.6319V15.5337ZM174.169 29.9808C173.015 29.9808 171.943 29.761 170.954 29.3214C169.965 28.8817 169.11 28.2785 168.388 27.5116C167.667 26.7448 167.106 25.8604 166.704 24.8584C166.302 23.8564 166.101 22.7828 166.101 21.6377C166.101 20.1449 166.446 18.7748 167.137 17.5274C167.827 16.2801 168.78 15.2832 169.996 14.5368C171.212 13.7904 172.592 13.4172 174.138 13.4172C175.725 13.4172 177.111 13.7955 178.296 14.5521C179.481 15.3087 180.413 16.3056 181.093 17.5428C181.773 18.7799 182.113 20.1347 182.113 21.607V22.0824C182.113 22.0824 182.103 22.2 182.082 22.4352H168.296C168.399 23.5803 168.723 24.5977 169.269 25.4872C169.816 26.3767 170.527 27.0822 171.402 27.6036C172.278 28.1251 173.231 28.3858 174.262 28.3858C175.313 28.3858 176.307 28.12 177.245 27.5883C178.182 27.0566 178.837 26.3614 179.208 25.5025L181.031 25.9933C180.702 26.7499 180.197 27.4349 179.517 28.0484C178.837 28.6619 178.038 29.1373 177.121 29.4747C176.204 29.8121 175.22 29.9808 174.169 29.9808ZM168.234 20.9322H180.135C180.052 19.7666 179.738 18.7441 179.192 17.8648C178.646 16.9855 177.935 16.2954 177.059 15.7944C176.183 15.2934 175.22 15.0429 174.169 15.0429C173.118 15.0429 172.16 15.2934 171.294 15.7944C170.429 16.2954 169.723 16.9907 169.177 17.8802C168.631 18.7697 168.316 19.787 168.234 20.9322ZM192.345 29.9808C191.17 29.9808 190.094 29.761 189.115 29.3214C188.136 28.8817 187.281 28.2733 186.549 27.4963C185.818 26.7192 185.251 25.8297 184.849 24.8277C184.447 23.8257 184.246 22.7624 184.246 21.6377C184.246 20.1245 184.586 18.7441 185.266 17.4968C185.946 16.2494 186.894 15.2576 188.11 14.5214C189.326 13.7853 190.727 13.4172 192.314 13.4172C193.819 13.4172 195.148 13.7597 196.302 14.4448C197.456 15.1298 198.311 16.0551 198.867 17.2207L196.827 17.8648C196.374 17.0469 195.74 16.4079 194.926 15.9478C194.112 15.4877 193.211 15.2576 192.221 15.2576C191.15 15.2576 190.171 15.5337 189.285 16.0858C188.399 16.6379 187.693 17.3945 187.167 18.3556C186.642 19.3167 186.379 20.4107 186.379 21.6377C186.379 22.8442 186.647 23.9382 187.183 24.9197C187.719 25.9013 188.43 26.6834 189.316 27.2662C190.202 27.849 191.181 28.1404 192.252 28.1404C192.953 28.1404 193.628 28.0177 194.277 27.7723C194.926 27.527 195.493 27.1947 195.977 26.7755C196.461 26.3563 196.786 25.9013 196.951 25.4105L199.022 26.024C198.733 26.7806 198.254 27.4605 197.585 28.0637C196.915 28.667 196.132 29.1373 195.235 29.4747C194.339 29.8121 193.375 29.9808 192.345 29.9808ZM210.057 28.9073C209.893 28.9686 209.635 29.0811 209.285 29.2447C208.934 29.4083 208.512 29.5514 208.017 29.6741C207.523 29.7968 206.987 29.8581 206.41 29.8581C205.812 29.8581 205.251 29.7457 204.725 29.5207C204.2 29.2958 203.782 28.9533 203.473 28.4932C203.164 28.0331 203.01 27.4656 203.01 26.7908V15.3496H200.784V13.6933H203.01V8.29475H205.112V13.6933H208.821V15.3496H205.112V26.208C205.153 26.7806 205.364 27.21 205.745 27.4963C206.127 27.7826 206.564 27.9257 207.059 27.9257C207.636 27.9257 208.162 27.8286 208.636 27.6343C209.11 27.4401 209.398 27.302 209.501 27.2202L210.057 28.9073ZM212.685 29.6741V13.6933H214.787V29.6741H212.685ZM212.685 10.3499V7.28253H214.787V10.3499H212.685ZM226.286 29.9808C225.132 29.9808 224.066 29.761 223.087 29.3214C222.108 28.8817 221.263 28.2785 220.552 27.5116C219.841 26.7448 219.29 25.8655 218.898 24.8737C218.507 23.8819 218.311 22.8339 218.311 21.7297C218.311 20.5846 218.507 19.5161 218.898 18.5243C219.29 17.5326 219.846 16.6532 220.567 15.8864C221.289 15.1196 222.139 14.5163 223.118 14.0767C224.097 13.637 225.163 13.4172 226.317 13.4172C227.471 13.4172 228.532 13.637 229.501 14.0767C230.47 14.5163 231.314 15.1196 232.036 15.8864C232.757 16.6532 233.313 17.5326 233.705 18.5243C234.097 19.5161 234.292 20.5846 234.292 21.7297C234.292 22.8339 234.097 23.8819 233.705 24.8737C233.313 25.8655 232.762 26.7448 232.051 27.5116C231.34 28.2785 230.495 28.8817 229.516 29.3214C228.538 29.761 227.461 29.9808 226.286 29.9808ZM220.444 21.7604C220.444 22.9464 220.707 24.0251 221.232 24.9964C221.758 25.9677 222.463 26.7346 223.35 27.2969C224.236 27.8593 225.215 28.1404 226.286 28.1404C227.358 28.1404 228.337 27.8541 229.223 27.2816C230.109 26.709 230.82 25.9268 231.356 24.9351C231.891 23.9433 232.159 22.8646 232.159 21.699C232.159 20.513 231.891 19.4292 231.356 18.4476C230.82 17.4661 230.109 16.689 229.223 16.1165C228.337 15.5439 227.358 15.2576 226.286 15.2576C225.215 15.2576 224.241 15.5541 223.365 16.1471C222.489 16.7402 221.783 17.5223 221.248 18.4936C220.712 19.465 220.444 20.5539 220.444 21.7604ZM251.356 29.6741H249.254V20.7481C249.254 18.8668 248.975 17.4917 248.419 16.6226C247.863 15.7535 246.987 15.319 245.791 15.319C244.967 15.319 244.153 15.5183 243.349 15.9171C242.546 16.3158 241.84 16.8577 241.232 17.5428C240.624 18.2278 240.186 19.01 239.918 19.8893V29.6741H237.816V13.6933H239.733V17.3127C240.166 16.5357 240.732 15.8557 241.433 15.2729C242.134 14.6902 242.927 14.2352 243.813 13.908C244.699 13.5808 245.616 13.4172 246.564 13.4172C247.45 13.4172 248.203 13.5808 248.821 13.908C249.439 14.2352 249.934 14.7004 250.305 15.3036C250.676 15.9069 250.943 16.6328 251.108 17.4814C251.273 18.3301 251.356 19.2758 251.356 20.3187V29.6741Z" fill="#0D4C92"/>
</svg>
